<svg xmlns="http://www.w3.org/2000/svg" viewBox="0 0 830 372" font-family="'Segoe UI', system-ui, sans-serif" role="img" aria-label="Commit rhythm for EstudiosVizcaino — 919 commits bucketed by weekday and hour, Madrid local time">
  <defs>
    <filter id="rg" x="-50%" y="-50%" width="200%" height="200%">
      <feGaussianBlur stdDeviation="2" result="b"/><feMerge><feMergeNode in="b"/><feMergeNode in="SourceGraphic"/></feMerge>
    </filter>
    <filter id="rd" x="-120%" y="-120%" width="340%" height="340%">
      <feGaussianBlur stdDeviation="1.6" result="b"/><feMerge><feMergeNode in="b"/><feMergeNode in="SourceGraphic"/></feMerge>
    </filter>
    <pattern id="rscan" width="4" height="4" patternUnits="userSpaceOnUse">
      <rect width="4" height="4" fill="#05070d"/><rect y="3" width="4" height="1" fill="#0a1220"/>
    </pattern>
  </defs>
  <rect width="830" height="372" fill="url(#rscan)"/>
  <g stroke="#38e1ff" stroke-opacity=".55" stroke-width="1.5" fill="none">
    <path d="M10 30V10h20"/><path d="M800 10h20v20"/><path d="M10 342v20h20"/><path d="M820 342v20h-20"/>
  </g>
  <circle cx="46" cy="31" r="4" fill="#ffb648">
    <animate attributeName="opacity" values="1;.25;1" dur="2.4s" repeatCount="indefinite"/>
  </circle>
  <text x="60" y="36" font-size="13" letter-spacing="6" fill="#38e1ff" filter="url(#rg)">COMMIT RHYTHM <tspan fill="#ffb648">// WHEN I WRITE CODE</tspan></text>
  <text x="790" y="36" text-anchor="end" font-size="11" letter-spacing="3" fill="#6f8aa8">2026-08-31</text>
  <line x1="40" y1="52" x2="790" y2="52" stroke="#38e1ff" stroke-opacity=".22"/>
  <text x="40" y="96" font-size="30" font-weight="700" fill="#ffb648" filter="url(#rg)" letter-spacing="2">14:00</text><text x="40" y="116" font-size="10" letter-spacing="4" fill="#6f8aa8">PEAK HOUR</text><text x="235" y="96" font-size="30" font-weight="700" fill="#ffb648" filter="url(#rg)" letter-spacing="2">MON</text><text x="235" y="116" font-size="10" letter-spacing="4" fill="#6f8aa8">BUSIEST DAY</text><text x="430" y="96" font-size="30" font-weight="700" fill="#ffb648" filter="url(#rg)" letter-spacing="2">26%</text><text x="430" y="116" font-size="10" letter-spacing="4" fill="#6f8aa8">AFTER DARK</text><text x="625" y="96" font-size="30" font-weight="700" fill="#ffb648" filter="url(#rg)" letter-spacing="2">919</text><text x="625" y="116" font-size="10" letter-spacing="4" fill="#6f8aa8">COMMITS</text>
  <text x="40" y="140" font-size="10" letter-spacing="4" fill="#6f8aa8">HOUR OF DAY <tspan fill="#38e1ff" letter-spacing="2">· EUROPE/MADRID</tspan></text>
  <text x="80.0" y="160" text-anchor="middle" font-size="9" letter-spacing=".5" fill="#6f8aa8">00</text><text x="109.6" y="160" text-anchor="middle" font-size="9" letter-spacing=".5" fill="#6f8aa8">01</text><text x="139.2" y="160" text-anchor="middle" font-size="9" letter-spacing=".5" fill="#6f8aa8">02</text><text x="168.8" y="160" text-anchor="middle" font-size="9" letter-spacing=".5" fill="#6f8aa8">03</text><text x="198.4" y="160" text-anchor="middle" font-size="9" letter-spacing=".5" fill="#6f8aa8">04</text><text x="228.0" y="160" text-anchor="middle" font-size="9" letter-spacing=".5" fill="#6f8aa8">05</text><text x="257.6" y="160" text-anchor="middle" font-size="9" letter-spacing=".5" fill="#6f8aa8">06</text><text x="287.2" y="160" text-anchor="middle" font-size="9" letter-spacing=".5" fill="#6f8aa8">07</text><text x="316.8" y="160" text-anchor="middle" font-size="9" letter-spacing=".5" fill="#6f8aa8">08</text><text x="346.4" y="160" text-anchor="middle" font-size="9" letter-spacing=".5" fill="#6f8aa8">09</text><text x="376.0" y="160" text-anchor="middle" font-size="9" letter-spacing=".5" fill="#6f8aa8">10</text><text x="405.6" y="160" text-anchor="middle" font-size="9" letter-spacing=".5" fill="#6f8aa8">11</text><text x="435.2" y="160" text-anchor="middle" font-size="9" letter-spacing=".5" fill="#6f8aa8">12</text><text x="464.8" y="160" text-anchor="middle" font-size="9" letter-spacing=".5" fill="#6f8aa8">13</text><text x="494.4" y="160" text-anchor="middle" font-size="9" letter-spacing=".5" fill="#6f8aa8">14</text><text x="524.0" y="160" text-anchor="middle" font-size="9" letter-spacing=".5" fill="#6f8aa8">15</text><text x="553.6" y="160" text-anchor="middle" font-size="9" letter-spacing=".5" fill="#6f8aa8">16</text><text x="583.2" y="160" text-anchor="middle" font-size="9" letter-spacing=".5" fill="#6f8aa8">17</text><text x="612.8" y="160" text-anchor="middle" font-size="9" letter-spacing=".5" fill="#6f8aa8">18</text><text x="642.4" y="160" text-anchor="middle" font-size="9" letter-spacing=".5" fill="#6f8aa8">19</text><text x="672.0" y="160" text-anchor="middle" font-size="9" letter-spacing=".5" fill="#6f8aa8">20</text><text x="701.6" y="160" text-anchor="middle" font-size="9" letter-spacing=".5" fill="#6f8aa8">21</text><text x="731.2" y="160" text-anchor="middle" font-size="9" letter-spacing=".5" fill="#6f8aa8">22</text><text x="760.8" y="160" text-anchor="middle" font-size="9" letter-spacing=".5" fill="#6f8aa8">23</text>
  <text x="60" y="179.5" text-anchor="end" font-size="9" letter-spacing="2" fill="#6f8aa8">MON</text><text x="60" y="201.5" text-anchor="end" font-size="9" letter-spacing="2" fill="#6f8aa8">TUE</text><text x="60" y="223.5" text-anchor="end" font-size="9" letter-spacing="2" fill="#6f8aa8">WED</text><text x="60" y="245.5" text-anchor="end" font-size="9" letter-spacing="2" fill="#6f8aa8">THU</text><text x="60" y="267.5" text-anchor="end" font-size="9" letter-spacing="2" fill="#6f8aa8">FRI</text><text x="60" y="289.5" text-anchor="end" font-size="9" letter-spacing="2" fill="#6f8aa8">SAT</text><text x="60" y="311.5" text-anchor="end" font-size="9" letter-spacing="2" fill="#6f8aa8">SUN</text>
  <circle cx="80.0" cy="176" r="7.8" fill="#38e1ff" opacity="0.75" filter="url(#rd)"/><circle cx="80.0" cy="198" r="1.6" fill="#16243a"/><circle cx="80.0" cy="220" r="1.6" fill="#16243a"/><circle cx="80.0" cy="242" r="1.6" fill="#16243a"/><circle cx="80.0" cy="264" r="7.5" fill="#38e1ff" opacity="0.72" filter="url(#rd)"/><circle cx="80.0" cy="286" r="5.4" fill="#38e1ff" opacity="0.55" filter="url(#rd)"/><circle cx="80.0" cy="308" r="4.4" fill="#38e1ff" opacity="0.50" filter="url(#rd)"/><circle cx="109.6" cy="176" r="4.0" fill="#38e1ff" opacity="0.48" filter="url(#rd)"/><circle cx="109.6" cy="198" r="5.1" fill="#38e1ff" opacity="0.53" filter="url(#rd)"/><circle cx="109.6" cy="220" r="1.6" fill="#16243a"/><circle cx="109.6" cy="242" r="6.1" fill="#38e1ff" opacity="0.60" filter="url(#rd)"/><circle cx="109.6" cy="264" r="1.6" fill="#16243a"/><circle cx="109.6" cy="286" r="1.6" fill="#16243a"/><circle cx="109.6" cy="308" r="6.8" fill="#38e1ff" opacity="0.65" filter="url(#rd)"/><circle cx="139.2" cy="176" r="5.9" fill="#38e1ff" opacity="0.58" filter="url(#rd)"/><circle cx="139.2" cy="198" r="4.0" fill="#38e1ff" opacity="0.48" filter="url(#rd)"/><circle cx="139.2" cy="220" r="3.5" fill="#38e1ff" opacity="0.47" filter="url(#rd)"/><circle cx="139.2" cy="242" r="1.6" fill="#16243a"/><circle cx="139.2" cy="264" r="1.6" fill="#16243a"/><circle cx="139.2" cy="286" r="3.5" fill="#38e1ff" opacity="0.47" filter="url(#rd)"/><circle cx="139.2" cy="308" r="3.5" fill="#38e1ff" opacity="0.47" filter="url(#rd)"/><circle cx="168.8" cy="176" r="4.8" fill="#38e1ff" opacity="0.52" filter="url(#rd)"/><circle cx="168.8" cy="198" r="1.6" fill="#16243a"/><circle cx="168.8" cy="220" r="4.8" fill="#38e1ff" opacity="0.52" filter="url(#rd)"/><circle cx="168.8" cy="242" r="1.6" fill="#16243a"/><circle cx="168.8" cy="264" r="1.6" fill="#16243a"/><circle cx="168.8" cy="286" r="5.1" fill="#38e1ff" opacity="0.53" filter="url(#rd)"/><circle cx="168.8" cy="308" r="1.6" fill="#16243a"/><circle cx="198.4" cy="176" r="1.6" fill="#16243a"/><circle cx="198.4" cy="198" r="1.6" fill="#16243a"/><circle cx="198.4" cy="220" r="5.9" fill="#38e1ff" opacity="0.58" filter="url(#rd)"/><circle cx="198.4" cy="242" r="1.6" fill="#16243a"/><circle cx="198.4" cy="264" r="1.6" fill="#16243a"/><circle cx="198.4" cy="286" r="1.6" fill="#16243a"/><circle cx="198.4" cy="308" r="1.6" fill="#16243a"/><circle cx="228.0" cy="176" r="1.6" fill="#16243a"/><circle cx="228.0" cy="198" r="4.8" fill="#38e1ff" opacity="0.52" filter="url(#rd)"/><circle cx="228.0" cy="220" r="1.6" fill="#16243a"/><circle cx="228.0" cy="242" r="1.6" fill="#16243a"/><circle cx="228.0" cy="264" r="1.6" fill="#16243a"/><circle cx="228.0" cy="286" r="1.6" fill="#16243a"/><circle cx="228.0" cy="308" r="1.6" fill="#16243a"/><circle cx="257.6" cy="176" r="1.6" fill="#16243a"/><circle cx="257.6" cy="198" r="1.6" fill="#16243a"/><circle cx="257.6" cy="220" r="1.6" fill="#16243a"/><circle cx="257.6" cy="242" r="1.6" fill="#16243a"/><circle cx="257.6" cy="264" r="1.6" fill="#16243a"/><circle cx="257.6" cy="286" r="1.6" fill="#16243a"/><circle cx="257.6" cy="308" r="1.6" fill="#16243a"/><circle cx="287.2" cy="176" r="1.6" fill="#16243a"/><circle cx="287.2" cy="198" r="1.6" fill="#16243a"/><circle cx="287.2" cy="220" r="1.6" fill="#16243a"/><circle cx="287.2" cy="242" r="1.6" fill="#16243a"/><circle cx="287.2" cy="264" r="5.9" fill="#38e1ff" opacity="0.58" filter="url(#rd)"/><circle cx="287.2" cy="286" r="4.0" fill="#38e1ff" opacity="0.48" filter="url(#rd)"/><circle cx="287.2" cy="308" r="3.5" fill="#38e1ff" opacity="0.47" filter="url(#rd)"/><circle cx="316.8" cy="176" r="3.5" fill="#38e1ff" opacity="0.47" filter="url(#rd)"/><circle cx="316.8" cy="198" r="4.0" fill="#38e1ff" opacity="0.48" filter="url(#rd)"/><circle cx="316.8" cy="220" r="1.6" fill="#16243a"/><circle cx="316.8" cy="242" r="4.4" fill="#38e1ff" opacity="0.50" filter="url(#rd)"/><circle cx="316.8" cy="264" r="5.9" fill="#38e1ff" opacity="0.58" filter="url(#rd)"/><circle cx="316.8" cy="286" r="4.8" fill="#38e1ff" opacity="0.52" filter="url(#rd)"/><circle cx="316.8" cy="308" r="1.6" fill="#16243a"/><circle cx="346.4" cy="176" r="1.6" fill="#16243a"/><circle cx="346.4" cy="198" r="4.0" fill="#38e1ff" opacity="0.48" filter="url(#rd)"/><circle cx="346.4" cy="220" r="1.6" fill="#16243a"/><circle cx="346.4" cy="242" r="7.8" fill="#38e1ff" opacity="0.75" filter="url(#rd)"/><circle cx="346.4" cy="264" r="5.4" fill="#38e1ff" opacity="0.55" filter="url(#rd)"/><circle cx="346.4" cy="286" r="4.0" fill="#38e1ff" opacity="0.48" filter="url(#rd)"/><circle cx="346.4" cy="308" r="1.6" fill="#16243a"/><circle cx="376.0" cy="176" r="7.1" fill="#38e1ff" opacity="0.68" filter="url(#rd)"/><circle cx="376.0" cy="198" r="1.6" fill="#16243a"/><circle cx="376.0" cy="220" r="4.0" fill="#38e1ff" opacity="0.48" filter="url(#rd)"/><circle cx="376.0" cy="242" r="4.0" fill="#38e1ff" opacity="0.48" filter="url(#rd)"/><circle cx="376.0" cy="264" r="4.4" fill="#38e1ff" opacity="0.50" filter="url(#rd)"/><circle cx="376.0" cy="286" r="1.6" fill="#16243a"/><circle cx="376.0" cy="308" r="3.5" fill="#38e1ff" opacity="0.47" filter="url(#rd)"/><circle cx="405.6" cy="176" r="7.0" fill="#38e1ff" opacity="0.67" filter="url(#rd)"/><circle cx="405.6" cy="198" r="4.4" fill="#38e1ff" opacity="0.50" filter="url(#rd)"/><circle cx="405.6" cy="220" r="4.0" fill="#38e1ff" opacity="0.48" filter="url(#rd)"/><circle cx="405.6" cy="242" r="4.8" fill="#38e1ff" opacity="0.52" filter="url(#rd)"/><circle cx="405.6" cy="264" r="8.8" fill="#ffb648" opacity="0.85" filter="url(#rd)"/><circle cx="405.6" cy="286" r="4.4" fill="#38e1ff" opacity="0.50" filter="url(#rd)"/><circle cx="405.6" cy="308" r="1.6" fill="#16243a"/><circle cx="435.2" cy="176" r="5.4" fill="#38e1ff" opacity="0.55" filter="url(#rd)"/><circle cx="435.2" cy="198" r="6.8" fill="#38e1ff" opacity="0.65" filter="url(#rd)"/><circle cx="435.2" cy="220" r="1.6" fill="#16243a"/><circle cx="435.2" cy="242" r="4.4" fill="#38e1ff" opacity="0.50" filter="url(#rd)"/><circle cx="435.2" cy="264" r="6.3" fill="#38e1ff" opacity="0.62" filter="url(#rd)"/><circle cx="435.2" cy="286" r="6.3" fill="#38e1ff" opacity="0.62" filter="url(#rd)"/><circle cx="435.2" cy="308" r="4.4" fill="#38e1ff" opacity="0.50" filter="url(#rd)"/><circle cx="464.8" cy="176" r="7.7" fill="#38e1ff" opacity="0.73" filter="url(#rd)"/><circle cx="464.8" cy="198" r="6.6" fill="#38e1ff" opacity="0.63" filter="url(#rd)"/><circle cx="464.8" cy="220" r="1.6" fill="#16243a"/><circle cx="464.8" cy="242" r="4.8" fill="#38e1ff" opacity="0.52" filter="url(#rd)"/><circle cx="464.8" cy="264" r="1.6" fill="#16243a"/><circle cx="464.8" cy="286" r="8.3" fill="#38e1ff" opacity="0.80" filter="url(#rd)"/><circle cx="464.8" cy="308" r="9.5" fill="#ffb648" opacity="0.93" filter="url(#rd)"/><circle cx="494.4" cy="176" r="7.1" fill="#38e1ff" opacity="0.68" filter="url(#rd)"/><circle cx="494.4" cy="198" r="10.0" fill="#ffb648" opacity="1.00" filter="url(#rd)"/><circle cx="494.4" cy="220" r="1.6" fill="#16243a"/><circle cx="494.4" cy="242" r="6.3" fill="#38e1ff" opacity="0.62" filter="url(#rd)"/><circle cx="494.4" cy="264" r="3.5" fill="#38e1ff" opacity="0.47" filter="url(#rd)"/><circle cx="494.4" cy="286" r="7.8" fill="#38e1ff" opacity="0.75" filter="url(#rd)"/><circle cx="494.4" cy="308" r="7.3" fill="#38e1ff" opacity="0.70" filter="url(#rd)"/><circle cx="524.0" cy="176" r="5.9" fill="#38e1ff" opacity="0.58" filter="url(#rd)"/><circle cx="524.0" cy="198" r="8.0" fill="#38e1ff" opacity="0.77" filter="url(#rd)"/><circle cx="524.0" cy="220" r="4.0" fill="#38e1ff" opacity="0.48" filter="url(#rd)"/><circle cx="524.0" cy="242" r="5.9" fill="#38e1ff" opacity="0.58" filter="url(#rd)"/><circle cx="524.0" cy="264" r="4.4" fill="#38e1ff" opacity="0.50" filter="url(#rd)"/><circle cx="524.0" cy="286" r="4.4" fill="#38e1ff" opacity="0.50" filter="url(#rd)"/><circle cx="524.0" cy="308" r="5.6" fill="#38e1ff" opacity="0.57" filter="url(#rd)"/><circle cx="553.6" cy="176" r="5.1" fill="#38e1ff" opacity="0.53" filter="url(#rd)"/><circle cx="553.6" cy="198" r="6.1" fill="#38e1ff" opacity="0.60" filter="url(#rd)"/><circle cx="553.6" cy="220" r="7.0" fill="#38e1ff" opacity="0.67" filter="url(#rd)"/><circle cx="553.6" cy="242" r="5.6" fill="#38e1ff" opacity="0.57" filter="url(#rd)"/><circle cx="553.6" cy="264" r="5.9" fill="#38e1ff" opacity="0.58" filter="url(#rd)"/><circle cx="553.6" cy="286" r="1.6" fill="#16243a"/><circle cx="553.6" cy="308" r="6.8" fill="#38e1ff" opacity="0.65" filter="url(#rd)"/><circle cx="583.2" cy="176" r="6.6" fill="#38e1ff" opacity="0.63" filter="url(#rd)"/><circle cx="583.2" cy="198" r="7.0" fill="#38e1ff" opacity="0.67" filter="url(#rd)"/><circle cx="583.2" cy="220" r="5.9" fill="#38e1ff" opacity="0.58" filter="url(#rd)"/><circle cx="583.2" cy="242" r="5.6" fill="#38e1ff" opacity="0.57" filter="url(#rd)"/><circle cx="583.2" cy="264" r="4.0" fill="#38e1ff" opacity="0.48" filter="url(#rd)"/><circle cx="583.2" cy="286" r="4.8" fill="#38e1ff" opacity="0.52" filter="url(#rd)"/><circle cx="583.2" cy="308" r="4.0" fill="#38e1ff" opacity="0.48" filter="url(#rd)"/><circle cx="612.8" cy="176" r="9.2" fill="#ffb648" opacity="0.90" filter="url(#rd)"/><circle cx="612.8" cy="198" r="8.0" fill="#38e1ff" opacity="0.77" filter="url(#rd)"/><circle cx="612.8" cy="220" r="4.8" fill="#38e1ff" opacity="0.52" filter="url(#rd)"/><circle cx="612.8" cy="242" r="5.4" fill="#38e1ff" opacity="0.55" filter="url(#rd)"/><circle cx="612.8" cy="264" r="4.8" fill="#38e1ff" opacity="0.52" filter="url(#rd)"/><circle cx="612.8" cy="286" r="3.5" fill="#38e1ff" opacity="0.47" filter="url(#rd)"/><circle cx="612.8" cy="308" r="3.5" fill="#38e1ff" opacity="0.47" filter="url(#rd)"/><circle cx="642.4" cy="176" r="9.5" fill="#ffb648" opacity="0.93" filter="url(#rd)"/><circle cx="642.4" cy="198" r="5.4" fill="#38e1ff" opacity="0.55" filter="url(#rd)"/><circle cx="642.4" cy="220" r="4.8" fill="#38e1ff" opacity="0.52" filter="url(#rd)"/><circle cx="642.4" cy="242" r="4.8" fill="#38e1ff" opacity="0.52" filter="url(#rd)"/><circle cx="642.4" cy="264" r="8.2" fill="#38e1ff" opacity="0.78" filter="url(#rd)"/><circle cx="642.4" cy="286" r="4.0" fill="#38e1ff" opacity="0.48" filter="url(#rd)"/><circle cx="642.4" cy="308" r="3.5" fill="#38e1ff" opacity="0.47" filter="url(#rd)"/><circle cx="672.0" cy="176" r="9.5" fill="#ffb648" opacity="0.93" filter="url(#rd)"/><circle cx="672.0" cy="198" r="6.8" fill="#38e1ff" opacity="0.65" filter="url(#rd)"/><circle cx="672.0" cy="220" r="4.4" fill="#38e1ff" opacity="0.50" filter="url(#rd)"/><circle cx="672.0" cy="242" r="3.5" fill="#38e1ff" opacity="0.47" filter="url(#rd)"/><circle cx="672.0" cy="264" r="5.1" fill="#38e1ff" opacity="0.53" filter="url(#rd)"/><circle cx="672.0" cy="286" r="3.5" fill="#38e1ff" opacity="0.47" filter="url(#rd)"/><circle cx="672.0" cy="308" r="4.4" fill="#38e1ff" opacity="0.50" filter="url(#rd)"/><circle cx="701.6" cy="176" r="7.7" fill="#38e1ff" opacity="0.73" filter="url(#rd)"/><circle cx="701.6" cy="198" r="5.4" fill="#38e1ff" opacity="0.55" filter="url(#rd)"/><circle cx="701.6" cy="220" r="4.0" fill="#38e1ff" opacity="0.48" filter="url(#rd)"/><circle cx="701.6" cy="242" r="3.5" fill="#38e1ff" opacity="0.47" filter="url(#rd)"/><circle cx="701.6" cy="264" r="4.8" fill="#38e1ff" opacity="0.52" filter="url(#rd)"/><circle cx="701.6" cy="286" r="3.5" fill="#38e1ff" opacity="0.47" filter="url(#rd)"/><circle cx="701.6" cy="308" r="6.8" fill="#38e1ff" opacity="0.65" filter="url(#rd)"/><circle cx="731.2" cy="176" r="6.6" fill="#38e1ff" opacity="0.63" filter="url(#rd)"/><circle cx="731.2" cy="198" r="4.4" fill="#38e1ff" opacity="0.50" filter="url(#rd)"/><circle cx="731.2" cy="220" r="7.8" fill="#38e1ff" opacity="0.75" filter="url(#rd)"/><circle cx="731.2" cy="242" r="4.4" fill="#38e1ff" opacity="0.50" filter="url(#rd)"/><circle cx="731.2" cy="264" r="4.4" fill="#38e1ff" opacity="0.50" filter="url(#rd)"/><circle cx="731.2" cy="286" r="1.6" fill="#16243a"/><circle cx="731.2" cy="308" r="6.6" fill="#38e1ff" opacity="0.63" filter="url(#rd)"/><circle cx="760.8" cy="176" r="3.5" fill="#38e1ff" opacity="0.47" filter="url(#rd)"/><circle cx="760.8" cy="198" r="4.8" fill="#38e1ff" opacity="0.52" filter="url(#rd)"/><circle cx="760.8" cy="220" r="4.8" fill="#38e1ff" opacity="0.52" filter="url(#rd)"/><circle cx="760.8" cy="242" r="6.1" fill="#38e1ff" opacity="0.60" filter="url(#rd)"/><circle cx="760.8" cy="264" r="3.5" fill="#38e1ff" opacity="0.47" filter="url(#rd)"/><circle cx="760.8" cy="286" r="7.0" fill="#38e1ff" opacity="0.67" filter="url(#rd)"/><circle cx="760.8" cy="308" r="5.9" fill="#38e1ff" opacity="0.58" filter="url(#rd)"/>
  <text x="40" y="346" font-size="9.5" letter-spacing="1.5" fill="#6f8aa8">EVERY COMMIT I HAVE AUTHORED IN PUBLIC AND PRIVATE REPOS, BUCKETED BY WEEKDAY AND HOUR <tspan fill="#38e1ff">▰</tspan> BIGGER AND WARMER = BUSIER</text>
  <rect x="0" y="0" width="830" height="2" fill="#38e1ff" opacity=".1">
    <animate attributeName="y" values="0;370;0" dur="16s" repeatCount="indefinite"/>
  </rect>
</svg>
